<?xml version="1.0" standalone="no"?>
<!DOCTYPE svg PUBLIC "-//W3C//DTD SVG 20010904//EN"
 "http://www.w3.org/TR/2001/REC-SVG-20010904/DTD/svg10.dtd">
<svg version="1.0" xmlns="http://www.w3.org/2000/svg"
 width="600.000000pt" height="600.000000pt" viewBox="0 0 600.000000 600.000000"
 preserveAspectRatio="xMidYMid meet">
<metadata>
Created by potrace 1.11, written by Peter Selinger 2001-2013
</metadata>
<g transform="translate(0.000000,600.000000) scale(0.100000,-0.100000)"
fill="#000000" stroke="none">
<path d="M2799 5976 c-2 -2 -42 -6 -89 -10 -47 -3 -94 -8 -105 -10 -11 -2 -42
-7 -70 -10 -298 -40 -687 -171 -969 -327 -313 -172 -549 -360 -800 -633 -202
-220 -435 -593 -536 -856 -11 -30 -25 -64 -30 -75 -21 -47 -97 -299 -115 -385
-2 -8 -8 -36 -14 -63 -6 -26 -14 -64 -17 -85 -3 -20 -9 -62 -14 -92 -31 -194
-35 -655 -6 -805 2 -11 7 -42 10 -70 4 -27 14 -84 23 -125 8 -41 17 -86 20
-100 6 -36 61 -224 85 -295 60 -174 156 -383 243 -527 30 -50 55 -93 55 -95 0
-8 193 -274 221 -303 8 -8 39 -44 70 -80 69 -79 210 -218 300 -294 416 -352
938 -591 1469 -672 25 -3 52 -8 60 -9 106 -19 517 -27 675 -12 1123 103 2105
853 2503 1912 66 175 94 276 136 480 43 215 54 346 51 615 -3 194 -20 405 -39
460 -3 8 -7 34 -10 56 -7 58 -51 230 -87 344 -179 558 -517 1050 -972 1414
-394 315 -812 506 -1337 611 -8 1 -40 6 -70 10 -30 3 -68 9 -85 11 -16 3 -46
8 -65 10 -44 6 -485 15 -491 10z m311 -499 c184 -41 333 -121 467 -250 329
-317 383 -825 129 -1212 -54 -82 -186 -213 -272 -268 -281 -181 -644 -203
-939 -55 -227 114 -401 310 -480 543 -20 59 -26 82 -43 175 -10 51 -8 236 2
290 14 71 38 156 57 197 10 23 19 44 19 47 0 3 23 45 52 93 55 93 185 234 268
290 114 77 254 133 387 157 94 16 264 12 353 -7z m5 -2257 c33 -5 76 -11 95
-13 138 -19 367 -88 498 -149 116 -55 331 -184 362 -218 3 -3 34 -29 70 -58
185 -149 387 -408 488 -624 12 -27 31 -67 42 -90 32 -71 87 -247 108 -353 31
-152 32 -158 39 -330 l6 -160 -95 -90 c-307 -294 -734 -523 -1156 -619 -150
-34 -219 -46 -367 -61 -61 -7 -422 -8 -432 -2 -5 3 -40 8 -79 11 -39 4 -80 8
-91 11 -11 2 -37 6 -57 9 -19 3 -57 11 -83 17 -27 6 -57 13 -68 14 -11 2 -69
17 -129 35 -189 55 -392 142 -554 237 -41 24 -77 43 -82 43 -5 0 -10 3 -12 7
-2 5 -37 31 -78 58 -131 88 -221 164 -378 322 l-154 154 7 92 c4 51 8 99 10
107 1 8 6 35 10 60 51 314 171 591 369 854 73 97 224 251 321 328 276 219 601
356 950 402 113 15 349 18 440 6z"/>
</g>
</svg>
